<svg width="32" height="33" viewBox="0 0 32 33" fill="none" xmlns="http://www.w3.org/2000/svg">
<path d="M28.3427 15.116C28.9747 15.9427 28.9747 17.0587 28.3427 17.884C26.352 20.4827 21.576 25.8334 16 25.8334C10.424 25.8334 5.64799 20.4827 3.65733 17.884C3.34984 17.4882 3.18292 17.0012 3.18292 16.5C3.18292 15.9988 3.34984 15.5118 3.65733 15.116C5.64799 12.5174 10.424 7.16669 16 7.16669C21.576 7.16669 26.352 12.5174 28.3427 15.116V15.116Z" stroke="black" stroke-width="2" stroke-linecap="round" stroke-linejoin="round"/>
<path d="M16 20.5C18.2091 20.5 20 18.7091 20 16.5C20 14.2909 18.2091 12.5 16 12.5C13.7909 12.5 12 14.2909 12 16.5C12 18.7091 13.7909 20.5 16 20.5Z" stroke="black" stroke-width="2" stroke-linecap="round" stroke-linejoin="round"/>
</svg>
